<!DOCTYPE svg PUBLIC "-//W3C//DTD SVG 1.1//EN" "http://www.w3.org/Graphics/SVG/1.1/DTD/svg11.dtd">
<!-- Uploaded to: SVG Repo, www.svgrepo.com, Transformed by: SVG Repo Mixer Tools -->
<svg height="800px" width="800px" version="1.1" id="Layer_1" xmlns="http://www.w3.org/2000/svg" xmlns:xlink="http://www.w3.org/1999/xlink" viewBox="0 0 512 512" xml:space="preserve" fill="#000000">
<g id="SVGRepo_bgCarrier" stroke-width="0"/>
<g id="SVGRepo_tracerCarrier" stroke-linecap="round" stroke-linejoin="round"/>
<g id="SVGRepo_iconCarrier"> <g> <g> <g> <path style="fill:#E67E22;" d="M376.853,434.238H135.146c-10.765,0-19.492,8.727-19.492,19.492 c0,10.765,8.727,19.492,19.492,19.492h241.707c10.765,0,19.492-8.727,19.492-19.492 C396.345,442.966,387.618,434.238,376.853,434.238z"/> <path style="fill:#E67E22;" d="M278.589,141.063h-88.313c-10.765,0-19.492,8.727-19.492,19.492v61.031 c0,10.765,8.727,19.492,19.492,19.492h88.313c10.765,0,19.492-8.727,19.492-19.492v-12.709l23.859,13.775 c8.548,4.935,19.277-1.241,19.277-11.129v-40.905c0-9.871-10.714-16.075-19.277-11.129l-23.859,13.775v-12.708 C298.081,149.79,289.354,141.063,278.589,141.063z"/> <path style="fill:#E67E22;" d="M499.005,291.385H12.995C5.818,291.385,0,297.203,0,304.38v34.683 c0,32.296,26.181,58.477,58.477,58.477h395.046c32.296,0,58.477-26.181,58.477-58.477V304.38 C512,297.203,506.182,291.385,499.005,291.385z"/> <path style="fill:#E67E22;" d="M453.523,38.777H58.477C26.181,38.777,0,64.958,0,97.254v142.151 c0,7.177,5.818,12.995,12.995,12.995h25.99c7.177,0,12.995-5.818,12.995-12.995V110.249c0-10.765,8.727-19.492,19.492-19.492 h369.056c10.765,0,19.492,8.727,19.492,19.492v129.157c0,7.177,5.818,12.995,12.995,12.995h25.99 c7.177,0,12.995-5.818,12.995-12.995V97.254C512,64.958,485.819,38.777,453.523,38.777z"/> </g> </g> </g> </g>
</svg>